<svg viewBox="0 0 55 55" focusable="false" xmlns="http://www.w3.org/2000/svg"><path fill="#fff" fill-rule="#fff" d="M27.48 30.159a1.06 1.06 0 0 0-1.047 1.048V49.72a3.172 3.172 0 0 1-3.183 3.183c-1.902 0-3.183-1.67-3.183-3.144a1.06 1.06 0 0 0-1.048-1.048 1.06 1.06 0 0 0-1.048 1.048c-.039 2.717 2.174 5.279 5.279 5.279a5.284 5.284 0 0 0 5.279-5.279V31.246c0-.272-.117-.544-.31-.777-.156-.194-.428-.31-.738-.31Z" clip-rule="evenodd"></path><path fill="#fff" d="M27.52 3.183C12.342 3.183 0 15.487 0 30.703c0 .582.466 1.047 1.048 1.047h52.904c.582 0 1.048-.465 1.048-1.048 0-15.215-12.304-27.52-27.48-27.52Zm0 2.096c13.662 0 24.802 10.83 25.384 24.337H2.134C2.718 16.108 13.858 5.279 27.52 5.279Z"></path><path fill="#fff" fill-rule="evenodd" d="M27.48 0a1.06 1.06 0 0 0-1.048 1.048v2.096c0 .272.116.543.31.776.194.194.466.31.738.31.271 0 .543-.116.737-.31.194-.194.31-.466.31-.776V1.087c0-.272-.116-.544-.31-.776C28.023.078 27.79 0 27.48 0Z" clip-rule="evenodd"></path><path fill="#fff" d="M27.518 3.183c-4.347 0-8.073 3.338-10.674 8.306-2.6 4.968-4.153 11.722-4.153 19.174h2.135c0-7.141 1.514-13.623 3.92-18.204 2.407-4.58 5.55-7.18 8.773-7.18 3.26 0 6.404 2.6 8.772 7.18 2.367 4.58 3.92 11.063 3.92 18.205h2.135c0-7.453-1.553-14.207-4.153-19.175-2.601-4.968-6.327-8.306-10.674-8.306Z"></path></svg>